<svg xmlns="http://www.w3.org/2000/svg" width="340" height="200" viewBox="0 0 340 200" font-family="'Segoe UI', Ubuntu, Sans-Serif">
  <rect x="0.5" y="0.5" width="339" height="199" rx="6" fill="#1a1b27" stroke="#1a1b27" stroke-opacity="1.00"/>
  <text x="20" y="30" font-size="15" font-weight="600" fill="#70a5fd">Most Commit Language (last year)</text>
  <rect x="20" y="47" width="10" height="10" fill="#DA5B0B" stroke="#1a1b27" stroke-width="1"/>
  <text x="36" y="55" font-size="11" fill="#38bdae">Jupyter Notebook 33.33%</text>
  <rect x="20" y="67" width="10" height="10" fill="#3572A5" stroke="#1a1b27" stroke-width="1"/>
  <text x="36" y="75" font-size="11" fill="#38bdae">Python 33.33%</text>
  <rect x="20" y="87" width="10" height="10" fill="#e34c26" stroke="#1a1b27" stroke-width="1"/>
  <text x="36" y="95" font-size="11" fill="#38bdae">HTML 20.20%</text>
  <rect x="20" y="107" width="10" height="10" fill="#663399" stroke="#1a1b27" stroke-width="1"/>
  <text x="36" y="115" font-size="11" fill="#38bdae">CSS 13.13%</text>
  <path d="M250.00,55.00 A55.00,55.00 0 0 1 297.63,137.50 L275.98,125.00 A30.00,30.00 0 0 0 250.00,80.00 Z" fill="#DA5B0B" stroke="#1a1b27" stroke-width="1.5"/>
  <path d="M297.63,137.50 A55.00,55.00 0 0 1 202.36,137.49 L224.02,125.00 A30.00,30.00 0 0 0 275.98,125.00 Z" fill="#3572A5" stroke="#1a1b27" stroke-width="1.5"/>
  <path d="M202.36,137.49 A55.00,55.00 0 0 1 209.61,72.67 L227.97,89.64 A30.00,30.00 0 0 0 224.02,125.00 Z" fill="#e34c26" stroke="#1a1b27" stroke-width="1.5"/>
  <path d="M209.61,72.67 A55.00,55.00 0 0 1 250.00,55.00 L250.00,80.00 A30.00,30.00 0 0 0 227.97,89.64 Z" fill="#663399" stroke="#1a1b27" stroke-width="1.5"/>
</svg>